<svg width="838" height="320" viewBox="0 0 838 320" fill="none" xmlns="http://www.w3.org/2000/svg">
<rect x="2" y="97" width="159.404" height="220.681" rx="3" stroke="#FEFEFE" stroke-width="4"/>
<line x1="0.956055" y1="99.9883" x2="162.437" y2="99.9883" stroke="#FEFEFE" stroke-width="4"/>
<line x1="0.956055" y1="311.185" x2="162.437" y2="311.185" stroke="#FEFEFE" stroke-width="10"/>
<path d="M83.1886 98.3995C83.1886 99.3489 82.4189 100.119 81.4695 100.119C80.5201 100.119 79.7505 99.3489 79.7505 98.3995C79.7505 97.4501 80.5201 96.6805 81.4695 96.6805C82.4189 96.6805 83.1886 97.4501 83.1886 98.3995Z" fill="#213D43"/>
<path d="M86.6266 312.867C86.6266 315.525 84.4716 317.68 81.8133 317.68C79.155 317.68 77 315.525 77 312.867C77 310.209 79.155 308.054 81.8133 308.054C84.4716 308.054 86.6266 310.209 86.6266 312.867Z" fill="#213D43"/>
<rect x="757.556" y="172" width="77.7018" height="145.786" rx="3" stroke="#FEFEFE" stroke-width="4"/>
<rect x="215.877" y="2" width="486.212" height="302.382" rx="3" stroke="#FEFEFE" stroke-width="4"/>
<path d="M173.524 306.883H744.437V315C744.437 317.485 742.422 319.5 739.937 319.5H178.024C175.539 319.5 173.524 317.485 173.524 315V306.883Z" fill="#FEFEFE" stroke="#F2F2F2"/>
<line x1="216.601" y1="6.39459" x2="702.001" y2="6.39459" stroke="#FEFEFE" stroke-width="5"/>
<line x1="215.956" y1="299.347" x2="701.356" y2="299.347" stroke="#FEFEFE" stroke-width="10"/>
<path d="M461 4.5C461 5.88071 459.881 7 458.5 7C457.119 7 456 5.88071 456 4.5C456 3.11929 457.119 2 458.5 2C459.881 2 461 3.11929 461 4.5Z" fill="#213D43"/>
</svg>
