<svg width="120" height="69" viewBox="0 0 120 69" fill="none" xmlns="http://www.w3.org/2000/svg">
<path d="M9.072 9.904C9.072 11.584 8.62867 12.8533 7.742 13.712C6.85533 14.5707 5.56267 15 3.864 15H1.4V5.004H4.172C5.75867 5.004 6.972 5.424 7.812 6.264C8.652 7.09467 9.072 8.308 9.072 9.904ZM8.232 9.932C8.232 7.12267 6.82733 5.718 4.018 5.718H2.212V14.286H3.808C6.75733 14.286 8.232 12.8347 8.232 9.932ZM14.0131 7.412C14.6478 7.412 15.1798 7.56133 15.6091 7.86C16.0385 8.14933 16.3605 8.55067 16.5751 9.064C16.7898 9.57733 16.8971 10.1653 16.8971 10.828V11.388H11.5771C11.5771 12.368 11.8058 13.124 12.2631 13.656C12.7205 14.1787 13.3785 14.44 14.2371 14.44C14.7038 14.44 15.1098 14.4027 15.4551 14.328C15.8005 14.2533 16.1785 14.1227 16.5891 13.936V14.664C16.2158 14.832 15.8471 14.9533 15.4831 15.028C15.1191 15.1027 14.6945 15.14 14.2091 15.14C13.0985 15.14 12.2445 14.7993 11.6471 14.118C11.0498 13.4367 10.7511 12.508 10.7511 11.332C10.7511 10.576 10.8771 9.904 11.1291 9.316C11.3905 8.71867 11.7638 8.252 12.2491 7.916C12.7345 7.58 13.3225 7.412 14.0131 7.412ZM13.9991 8.084C13.3178 8.084 12.7625 8.31267 12.3331 8.77C11.9131 9.22733 11.6658 9.876 11.5911 10.716H16.0571C16.0571 9.932 15.8891 9.29733 15.5531 8.812C15.2265 8.32667 14.7085 8.084 13.9991 8.084ZM20.2603 15L17.4043 7.552H18.2443L20.0923 12.494C20.2136 12.802 20.321 13.1053 20.4143 13.404C20.517 13.7027 20.5963 13.9687 20.6523 14.202H20.7083C20.7736 13.9687 20.853 13.7027 20.9463 13.404C21.049 13.096 21.1563 12.7927 21.2683 12.494L23.1163 7.552H23.9703L21.1143 15H20.2603ZM28.0268 7.412C28.6615 7.412 29.1935 7.56133 29.6228 7.86C30.0521 8.14933 30.3741 8.55067 30.5888 9.064C30.8035 9.57733 30.9108 10.1653 30.9108 10.828V11.388H25.5908C25.5908 12.368 25.8195 13.124 26.2768 13.656C26.7341 14.1787 27.3921 14.44 28.2508 14.44C28.7175 14.44 29.1235 14.4027 29.4688 14.328C29.8141 14.2533 30.1921 14.1227 30.6028 13.936V14.664C30.2295 14.832 29.8608 14.9533 29.4968 15.028C29.1328 15.1027 28.7081 15.14 28.2228 15.14C27.1121 15.14 26.2581 14.7993 25.6608 14.118C25.0635 13.4367 24.7648 12.508 24.7648 11.332C24.7648 10.576 24.8908 9.904 25.1428 9.316C25.4041 8.71867 25.7775 8.252 26.2628 7.916C26.7481 7.58 27.3361 7.412 28.0268 7.412ZM28.0128 8.084C27.3315 8.084 26.7761 8.31267 26.3468 8.77C25.9268 9.22733 25.6795 9.876 25.6048 10.716H30.0708C30.0708 9.932 29.9028 9.29733 29.5668 8.812C29.2401 8.32667 28.7221 8.084 28.0128 8.084ZM33.7214 15H32.9234V4.36H33.7214V15ZM42.4073 11.276C42.4073 12.0507 42.2766 12.7273 42.0153 13.306C41.7633 13.8847 41.3853 14.3373 40.8813 14.664C40.3866 14.9813 39.78 15.14 39.0613 15.14C38.3706 15.14 37.778 14.9813 37.2833 14.664C36.7886 14.3467 36.406 13.8987 36.1353 13.32C35.874 12.7413 35.7433 12.06 35.7433 11.276C35.7433 10.0627 36.042 9.11533 36.6393 8.434C37.246 7.75267 38.072 7.412 39.1173 7.412C39.8266 7.412 40.424 7.57533 40.9093 7.902C41.404 8.21933 41.7773 8.66733 42.0293 9.246C42.2813 9.82467 42.4073 10.5013 42.4073 11.276ZM36.5693 11.276C36.5693 12.228 36.77 12.998 37.1713 13.586C37.5726 14.1647 38.2026 14.454 39.0613 14.454C39.9293 14.454 40.564 14.1647 40.9653 13.586C41.376 12.998 41.5813 12.228 41.5813 11.276C41.5813 10.66 41.4973 10.114 41.3293 9.638C41.1613 9.162 40.8953 8.78867 40.5313 8.518C40.1673 8.24733 39.6913 8.112 39.1033 8.112C38.254 8.112 37.6193 8.392 37.1993 8.952C36.7793 9.512 36.5693 10.2867 36.5693 11.276ZM47.7671 7.412C48.7191 7.412 49.4611 7.734 49.9931 8.378C50.5345 9.01267 50.8051 9.96467 50.8051 11.234C50.8051 12.5033 50.5251 13.474 49.9651 14.146C49.4145 14.8087 48.6585 15.14 47.6971 15.14C47.0345 15.14 46.5025 15 46.1011 14.72C45.7091 14.44 45.4198 14.104 45.2331 13.712H45.1771C45.1865 13.9547 45.1958 14.2113 45.2051 14.482C45.2238 14.7527 45.2331 15.0093 45.2331 15.252V18.304H44.4351V7.552H45.0931L45.1911 8.952H45.2331C45.4198 8.54133 45.7138 8.182 46.1151 7.874C46.5258 7.566 47.0765 7.412 47.7671 7.412ZM47.6551 8.112C46.8338 8.112 46.2271 8.37333 45.8351 8.896C45.4431 9.40933 45.2425 10.156 45.2331 11.136V11.276C45.2331 12.34 45.4245 13.138 45.8071 13.67C46.1991 14.1927 46.7965 14.454 47.5991 14.454C48.3645 14.454 48.9525 14.1693 49.3631 13.6C49.7738 13.0307 49.9791 12.2373 49.9791 11.22C49.9791 10.2213 49.7831 9.456 49.3911 8.924C49.0085 8.38267 48.4298 8.112 47.6551 8.112ZM55.644 7.412C56.2787 7.412 56.8107 7.56133 57.24 7.86C57.6693 8.14933 57.9913 8.55067 58.206 9.064C58.4207 9.57733 58.528 10.1653 58.528 10.828V11.388H53.208C53.208 12.368 53.4367 13.124 53.894 13.656C54.3513 14.1787 55.0093 14.44 55.868 14.44C56.3347 14.44 56.7407 14.4027 57.086 14.328C57.4313 14.2533 57.8093 14.1227 58.22 13.936V14.664C57.8467 14.832 57.478 14.9533 57.114 15.028C56.75 15.1027 56.3253 15.14 55.84 15.14C54.7293 15.14 53.8753 14.7993 53.278 14.118C52.6807 13.4367 52.382 12.508 52.382 11.332C52.382 10.576 52.508 9.904 52.76 9.316C53.0213 8.71867 53.3947 8.252 53.88 7.916C54.3653 7.58 54.9533 7.412 55.644 7.412ZM55.63 8.084C54.9487 8.084 54.3933 8.31267 53.964 8.77C53.544 9.22733 53.2967 9.876 53.222 10.716H57.688C57.688 9.932 57.52 9.29733 57.184 8.812C56.8573 8.32667 56.3393 8.084 55.63 8.084ZM63.2146 15.14C62.2159 15.14 61.4459 14.8227 60.9046 14.188C60.3726 13.544 60.1066 12.6013 60.1066 11.36C60.1066 10.072 60.3866 9.092 60.9466 8.42C61.5159 7.748 62.2953 7.412 63.2846 7.412C63.9099 7.412 64.4186 7.54733 64.8106 7.818C65.2026 8.08867 65.4919 8.42933 65.6786 8.84H65.7346C65.7253 8.616 65.7113 8.36867 65.6926 8.098C65.6833 7.82733 65.6786 7.58933 65.6786 7.384V4.36H66.4766V15H65.8326L65.7206 13.712H65.6786C65.4826 14.104 65.1886 14.44 64.7966 14.72C64.4046 15 63.8773 15.14 63.2146 15.14ZM63.3126 14.454C64.1713 14.454 64.7826 14.1927 65.1466 13.67C65.5106 13.1473 65.6926 12.396 65.6926 11.416V11.276C65.6926 10.2493 65.5106 9.46533 65.1466 8.924C64.7826 8.37333 64.1899 8.098 63.3686 8.098C62.5659 8.098 61.9593 8.38267 61.5486 8.952C61.1379 9.512 60.9326 10.3147 60.9326 11.36C60.9326 12.3773 61.1286 13.1473 61.5206 13.67C61.9126 14.1927 62.5099 14.454 63.3126 14.454ZM73.3422 4.36V7.3C73.3422 7.56133 73.3375 7.846 73.3282 8.154C73.3188 8.462 73.3048 8.70933 73.2862 8.896H73.3422C73.5288 8.476 73.8322 8.126 74.2522 7.846C74.6815 7.55667 75.2228 7.412 75.8762 7.412C76.8375 7.412 77.5842 7.73867 78.1162 8.392C78.6482 9.036 78.9142 9.99267 78.9142 11.262C78.9142 12.438 78.6435 13.3807 78.1022 14.09C77.5702 14.79 76.7908 15.14 75.7642 15.14C75.1388 15.14 74.6255 15.0093 74.2242 14.748C73.8322 14.4867 73.5428 14.1693 73.3562 13.796H73.2862L73.1462 15H72.5442V4.36H73.3422ZM75.7782 8.098C74.9102 8.098 74.2848 8.36867 73.9022 8.91C73.5288 9.45133 73.3422 10.2353 73.3422 11.262V11.36C73.3422 12.368 73.5195 13.138 73.8742 13.67C74.2382 14.1927 74.8355 14.454 75.6662 14.454C76.4688 14.454 77.0708 14.1787 77.4722 13.628C77.8828 13.068 78.0882 12.2747 78.0882 11.248C78.0882 9.148 77.3182 8.098 75.7782 8.098ZM79.4336 7.552H80.2876L82.0656 12.186C82.2149 12.5967 82.3456 12.9653 82.4576 13.292C82.5696 13.6093 82.6583 13.894 82.7236 14.146H82.7656C82.8309 13.9313 82.9196 13.656 83.0316 13.32C83.1436 12.984 83.2743 12.6107 83.4236 12.2L85.1596 7.552H86.0136L82.6536 16.33C82.4016 16.9833 82.1029 17.4873 81.7576 17.842C81.4123 18.206 80.9456 18.388 80.3576 18.388C80.1709 18.388 80.0076 18.374 79.8676 18.346C79.7276 18.318 79.5923 18.2853 79.4616 18.248V17.576C79.7043 17.66 79.9703 17.702 80.2596 17.702C80.6516 17.702 80.9689 17.5807 81.2116 17.338C81.4636 17.0953 81.6829 16.7267 81.8696 16.232L82.3596 14.972L79.4336 7.552Z" fill="#5A5A5A"/>
<rect x="30" y="24" width="89.8861" height="45"/>
</svg>
