<svg width="46" height="45" viewBox="0 0 46 45" fill="none" xmlns="http://www.w3.org/2000/svg">
<path d="M16.1889 39C17.3462 41.6489 19.9894 43.5 23.0648 43.5C26.1403 43.5 28.7835 41.6489 29.9408 39H41.153C43.15 39 44.3247 36.7567 43.1873 35.1153L38.5223 28.3832C38.4807 28.3232 38.4543 28.2539 38.4455 28.1814L36.6048 13.0845C36.5516 12.649 36.4292 12.2247 36.2421 11.8279C34.2949 7.69859 30.8921 5.09991 27.1127 4.03179C26.3825 2.53287 24.8443 1.5 23.0648 1.5C21.2854 1.5 19.7471 2.53287 19.017 4.03179C15.2376 5.09991 11.8347 7.69859 9.88762 11.8279L11.2443 12.4676L9.88762 11.8279C9.70048 12.2247 9.57804 12.649 9.52494 13.0845L7.68421 28.1814C7.67537 28.2539 7.649 28.3232 7.60739 28.3832L2.94237 35.1153C1.80496 36.7567 2.9797 39 4.97668 39H16.1889Z" stroke="#0B0C0C" stroke-width="3"/>
</svg>
