<svg width="21" height="25" viewBox="0 0 21 25" fill="none" xmlns="http://www.w3.org/2000/svg">
<ellipse cx="10.2307" cy="1.92308" rx="1.53846" ry="1.92308" fill="#FEFEFE"/>
<ellipse cx="10.2307" cy="21.1538" rx="3.07692" ry="3.84615" fill="#FEFEFE"/>
<path d="M4.06017 6.48477C4.07129 6.37075 4.0974 6.2587 4.13784 6.15152C6.25719 0.533416 14.2043 0.533416 16.3237 6.15152C16.3641 6.2587 16.3902 6.37075 16.4014 6.48477L17.3645 16.3586C17.3778 16.4947 17.4188 16.6267 17.4852 16.7464L20.05 21.373C20.2347 21.7062 19.9937 22.1154 19.6127 22.1154H0.848869C0.467829 22.1154 0.226825 21.7062 0.41157 21.373L2.97638 16.7464C3.0427 16.6267 3.08377 16.4947 3.09705 16.3586L4.06017 6.48477Z" fill="#FEFEFE"/>
</svg>
