<svg width="19" height="23" viewBox="0 0 19 23" fill="none" xmlns="http://www.w3.org/2000/svg">
<path d="M7.78109 11.2272C10.5425 16.0102 18.0659 17.4137 15.1962 19.0705C12.3264 20.7274 7.76142 18.1932 5 13.4103C2.23858 8.62733 2.3264 3.40685 5.19615 1.75C8.06591 0.0931458 5.01967 6.44431 7.78109 11.2272Z" fill="#FEFEFE"/>
<path d="M8.30893 5.87481L6.5172 6.0885C5.94588 6.15664 5.43504 5.72979 5.40057 5.15546L5.21114 1.99955C5.20196 1.84661 5.27998 1.70161 5.41267 1.625L5.62917 1.5L5.95557 1.31155C6.02638 1.27067 6.10194 1.23863 6.18055 1.21614L7.60204 0.809508C7.88271 0.72922 8.18444 0.775584 8.42806 0.936432L8.56 1.02354C8.82266 1.19697 8.98835 1.48395 9.00721 1.79814L9.18871 4.82193C9.22043 5.35045 8.83468 5.8121 8.30893 5.87481Z" fill="#FEFEFE"/>
<path d="M13.1804 14.3124L12.0994 15.7572C11.7548 16.2179 11.869 16.8737 12.3492 17.1907L14.9875 18.9327C15.1154 19.0172 15.28 19.0221 15.4127 18.9455L15.6292 18.8205L15.9556 18.632C16.0264 18.5912 16.0919 18.5418 16.1507 18.4849L17.2136 17.4572C17.4235 17.2543 17.5342 16.9698 17.5167 16.6784L17.5072 16.5206C17.4883 16.2064 17.3227 15.9194 17.06 15.746L14.5321 14.0769C14.0902 13.7852 13.4975 13.8884 13.1804 14.3124Z" fill="#FEFEFE"/>
</svg>
