<svg width="36" height="45" viewBox="0 0 36 45" fill="none" xmlns="http://www.w3.org/2000/svg">
<path d="M25.5 9C25.5 13.1421 22.1421 16.5 18 16.5C13.8579 16.5 10.5 13.1421 10.5 9C10.5 4.85786 13.8579 1.5 18 1.5C22.1421 1.5 25.5 4.85786 25.5 9ZM34.5 35.9841C34.5 38.2748 34.0347 39.7449 33.3544 40.7224C32.6852 41.6838 31.6903 42.3374 30.2851 42.7716C28.8523 43.2143 27.0747 43.4028 24.9597 43.4686C23.5344 43.513 22.0319 43.5012 20.4303 43.4887C19.6449 43.4825 18.8357 43.4762 18 43.4762C17.1643 43.4762 16.3551 43.4825 15.5697 43.4887C13.9681 43.5012 12.4656 43.513 11.0403 43.4686C8.92529 43.4028 7.14771 43.2143 5.7149 42.7716C4.3097 42.3374 3.31485 41.6838 2.64565 40.7224C1.96529 39.7449 1.5 38.2748 1.5 35.9841C1.5 26.8814 8.88605 19.5 18 19.5C27.114 19.5 34.5 26.8814 34.5 35.9841Z" stroke="#0B0C0C" stroke-width="3"/>
</svg>
